<?xml version="1.0" encoding="utf-8"?>
<svg version="1.1" id="Layer_1" xmlns="http://www.w3.org/2000/svg" xmlns:xlink="http://www.w3.org/1999/xlink" x="0px" y="0px"
	 width="357.52px" height="46.008px" viewBox="0 0 357.52 46.008" enable-background="new 0 0 357.52 46.008" xml:space="preserve">
<rect x="291.999" fill="#0E0E18" width="15.842" height="46.008"/>
<polygon fill="#0E0E18" points="94.913,13.607 94.913,0 50.993,0 50.993,13.967 70.434,13.967 70.443,13.961 72.064,13.961 
	50.993,31.607 50.993,46.008 94.913,46.008 94.913,31.607 76.121,31.607 76.111,31.615 74.116,31.615 "/>
<polygon fill="#0E0E18" points="114.434,14.328 122.417,14.328 139.994,14.328 139.994,0 98.233,0 98.233,46.008 139.994,46.008 
	139.994,31.601 113.354,31.601 113.354,28.872 136.394,28.872 136.394,17.28 113.354,17.28 113.354,14.328 "/>
<polygon fill="#0E0E18" points="143.24,0 143.24,14.328 158.36,14.328 158.36,46.008 173.408,46.008 173.408,14.328 188.6,14.328 
	188.6,0 "/>
<path fill="#0E0E18" d="M191.919,0v46.008h15.84v-7.92l-0.016-0.003v-1.437h14.408v8.417h0.007v0.943h15.769V0H191.919z
	 M207.744,24.048V22.97l0.016-0.002v-7.92l-0.016-0.002v-1.078h14.408v10.08H207.744z"/>
<polygon fill="#0E0E18" points="287.679,14.328 287.679,0 242.32,0 242.32,28.727 272.488,28.727 272.488,31.607 242.32,31.607 
	242.32,46.008 287.679,46.008 287.679,17.208 257.44,17.208 257.44,14.328 "/>
<polygon fill="#0E0E18" points="357.52,14.328 357.52,0 312.16,0 312.16,28.727 342.328,28.727 342.328,31.607 312.16,31.607 
	312.16,46.008 357.52,46.008 357.52,17.208 327.28,17.208 327.28,14.328 "/>
<rect fill="#CE181E" width="46.01" height="46.009"/>
</svg>
